<svg width="85" height="92" viewBox="0 0 85 92" fill="none" xmlns="http://www.w3.org/2000/svg">
<path d="M47.2117 14.4346C51.6806 13.6588 55.3672 12.8234 59.1001 12.4123C65.4654 11.7094 71.035 13.44 75.6764 18.1609C84.0507 26.7806 86.2189 36.7263 82.8042 48.0777C80.9211 54.3303 76.2134 58.2025 70.9422 61.3387C65.4124 64.6539 59.5842 67.452 53.9482 70.6214C46.1906 74.9445 39.6529 80.5671 35.111 88.3646C34.2159 89.8962 32.5317 90.9704 31.4775 91.9915C28.8253 91.8058 27.3003 91.0433 26.8362 88.7889C26.551 87.5026 26.0405 86.2627 25.709 84.983C24.2436 79.4201 21.5782 74.4273 18.5746 69.5671C14.0791 62.3134 9.2123 55.2917 5.31356 47.6865C2.06157 41.3965 0.251812 34.4609 0.0157994 27.3839C-0.229529 19.3677 2.39615 12.1338 8.47631 6.36525C15.4516 -0.26524 30.6885 -3.38157 40.9657 5.37731C43.0676 7.16754 44.4534 9.81311 46.0845 12.1139C46.5328 12.8501 46.9102 13.6271 47.2117 14.4346ZM31.4908 78.4984C32.0036 78.2365 32.4787 77.9064 32.9031 77.5171C38.9103 70.1705 46.5486 65.0385 54.9826 60.8613C60.0682 58.3417 65.0411 55.5569 69.8614 52.5334C77.3671 47.892 78.8458 41.308 77.0555 33.2585C76.42 30.8752 75.4275 28.6017 74.1116 26.5153C71.6583 22.2983 67.8855 20.0307 62.979 19.6064C57.9464 19.1754 53.1857 19.8119 48.6836 22.3315C46.1707 23.7305 43.8301 22.7492 42.63 20.1633C42.3124 19.4737 42.0723 18.751 41.9139 18.0084C40.9127 13.4267 37.677 11.0066 33.639 9.34235C30.103 7.88877 26.2316 7.4502 22.46 8.07592C20.5902 8.34269 18.8032 9.02216 17.2286 10.0651C11.3606 14.2423 7.83315 19.918 7.48837 27.2314C7.1402 33.7262 8.69075 40.1819 11.9507 45.8101C14.2183 49.7884 16.592 53.6407 19.0387 57.4797C23.1231 63.8782 27.413 70.1374 30.3768 77.1789C30.6853 77.6682 31.0602 78.1122 31.4908 78.4984Z" fill="#DB0000"/>
<path d="M31.4909 78.4985C31.0669 78.109 30.6987 77.6627 30.3968 77.1724C27.433 70.1308 23.1431 63.8716 19.0587 57.4732C16.5921 53.6408 14.2383 49.7553 11.9508 45.8102C8.68643 40.1879 7.12902 33.7371 7.46857 27.2448C7.81336 19.9512 11.3408 14.2556 17.2088 10.0784C18.7834 9.03551 20.5704 8.35604 22.4402 8.08927C26.2171 7.45558 30.0958 7.88961 33.6391 9.34244C37.6771 11.0067 40.9327 13.4268 41.914 18.0085C42.0724 18.751 42.3125 19.4738 42.6301 20.1634C43.8302 22.7493 46.1708 23.7306 48.6837 22.3316C53.1858 19.812 57.9664 19.1755 62.9791 19.6064C67.8856 20.0308 71.6584 22.2984 74.1117 26.5154C75.4276 28.6018 76.4201 30.8752 77.0556 33.2586C78.8458 41.3081 77.3672 47.8457 69.8615 52.5335C65.0412 55.5371 60.0683 58.3418 54.9827 60.8614C46.5487 65.0386 38.9104 70.1441 32.9031 77.5172C32.4788 77.9065 32.0037 78.2366 31.4909 78.4985Z" fill="white"/>
</svg>
